<?xml version="1.0" encoding="utf-8"?>
<!-- Generator: Adobe Illustrator 26.0.2, SVG Export Plug-In . SVG Version: 6.00 Build 0)  -->
<svg version="1.1" id="Layer_1" xmlns="http://www.w3.org/2000/svg" xmlns:xlink="http://www.w3.org/1999/xlink" x="0px" y="0px"
	 viewBox="0 0 16 16" style="enable-background:new 0 0 16 16;" xml:space="preserve">
<style type="text/css">
	.st0{fill:#F08888;}
</style>
<path class="st0" d="M14.9,12.9L4.7,15.4c-0.2,0-0.3-0.1-0.4-0.2l0-0.2c0-0.2,0.1-0.3,0.2-0.4l10.1-3.1c0.2,0,0.3,0.1,0.4,0.2
	l0.2,0.7C15.1,12.7,15,12.9,14.9,12.9z"/>
<path class="st0" d="M4.3,1.8L1.4,11.9c0,0.2-0.2,0.3-0.4,0.2l-0.2,0c-0.2,0-0.3-0.2-0.2-0.4L3,1.4c0-0.2,0.2-0.3,0.4-0.2l0.7,0.2
	C4.3,1.4,4.4,1.6,4.3,1.8z"/>
<path class="st0" d="M11.2,5.8L3.6,13c-0.1,0.1-0.3,0.1-0.4,0L3,12.9c-0.1-0.1-0.1-0.3,0-0.4l7.2-7.7c0.1-0.1,0.3-0.1,0.4,0l0.5,0.5
	C11.3,5.5,11.3,5.7,11.2,5.8z"/>
</svg>
