<?xml version="1.0" encoding="utf-8"?>
<!-- Generator: Adobe Illustrator 26.0.2, SVG Export Plug-In . SVG Version: 6.00 Build 0)  -->
<svg version="1.1" id="Layer_1" xmlns="http://www.w3.org/2000/svg" xmlns:xlink="http://www.w3.org/1999/xlink" x="0px" y="0px"
	 viewBox="0 0 16 16" style="enable-background:new 0 0 16 16;" xml:space="preserve">
<style type="text/css">
	.st0{fill-rule:evenodd;clip-rule:evenodd;fill:none;stroke:#F08888;stroke-miterlimit:10;}
	.st1{fill-rule:evenodd;clip-rule:evenodd;fill:#F08888;stroke:#F08888;stroke-miterlimit:10;}
	.st2{fill:#FFFFFF;}
	.st3{font-family:'Revue';}
	.st4{font-size:10.2653px;}
</style>
<path class="st0" d="M12.7,14.7H3.3c-1.1,0-2-0.9-2-2V3.3c0-1.1,0.9-2,2-2h9.4c1.1,0,2,0.9,2,2v9.4C14.7,13.8,13.8,14.7,12.7,14.7z"
	/>
<path class="st1" d="M12,12.8H4c-0.5,0-1-0.4-1-1V4.2c0-0.5,0.4-1,1-1h8c0.5,0,1,0.4,1,1v7.7C13,12.4,12.5,12.8,12,12.8z"/>
<text transform="matrix(1 0 0 1 4.5216 12.1208)" class="st2 st3 st4">P</text>
</svg>
